<?xml version="1.0" standalone="no"?>
<!DOCTYPE svg PUBLIC "-//W3C//DTD SVG 20010904//EN"
 "http://www.w3.org/TR/2001/REC-SVG-20010904/DTD/svg10.dtd">
<svg version="1.0" xmlns="http://www.w3.org/2000/svg"
 width="16.000000pt" height="16.000000pt" viewBox="0 0 16.000000 16.000000"
 preserveAspectRatio="xMidYMid meet">
<metadata>
Created by potrace 1.11, written by Peter Selinger 2001-2013
</metadata>
<g transform="translate(0.000000,16.000000) scale(0.002286,-0.002286)"
fill="#000000" stroke="none">
<path d="M3414 6853 c-43 -76 -84 -147 -90 -158 -6 -11 -52 -90 -101 -175
-120 -208 -466 -806 -491 -850 -10 -19 -85 -147 -164 -285 -80 -137 -197 -340
-260 -450 -63 -110 -178 -308 -255 -440 -76 -132 -142 -247 -146 -255 -4 -8
-17 -31 -28 -50 -25 -42 -203 -349 -469 -810 -106 -184 -225 -389 -263 -455
-38 -66 -80 -138 -92 -160 -13 -22 -47 -80 -76 -130 -28 -49 -65 -115 -82
-145 -16 -30 -36 -62 -43 -71 -8 -8 -14 -18 -14 -22 0 -4 -177 -315 -209 -367
-26 -41 -161 -281 -161 -286 0 -2 50 -91 111 -197 62 -106 120 -207 131 -225
10 -18 53 -93 95 -165 42 -73 134 -233 206 -357 71 -124 151 -262 178 -308 27
-45 49 -84 49 -86 0 -2 25 -46 55 -97 31 -52 62 -105 70 -119 8 -14 36 -62 62
-107 l47 -83 2025 0 c1919 0 2027 1 2037 17 6 10 26 45 44 78 18 33 53 92 77
132 23 39 43 76 43 82 0 6 5 11 10 11 6 0 10 4 10 10 0 5 22 47 49 92 27 46
58 99 68 118 17 30 478 826 503 870 52 88 190 329 190 332 0 2 -903 3 -2007 3
-1105 0 -2013 1 -2020 3 -7 2 14 47 53 114 36 61 79 136 96 167 17 31 39 68
49 83 11 14 19 28 19 31 0 4 145 258 210 367 18 30 235 407 262 455 16 28 33
57 38 65 6 8 55 94 110 190 55 96 104 182 109 190 9 14 172 296 211 365 19 32
376 652 523 905 49 85 98 170 109 189 10 18 64 111 119 206 l100 173 -94 164
c-52 90 -104 179 -114 198 -11 19 -44 76 -73 125 -29 50 -62 108 -75 130 -31
56 -328 570 -503 873 -81 138 -150 252 -153 252 -4 0 -42 -62 -85 -137z m2412
-5515 c3 -3 -22 -48 -225 -398 -63 -107 -127 -220 -144 -250 -16 -30 -38 -67
-49 -82 -10 -14 -18 -28 -18 -31 0 -3 -23 -44 -51 -91 l-50 -86 -1789 0 -1789
0 90 155 c49 86 100 173 114 195 14 22 25 41 25 44 0 2 37 66 81 142 45 77 92
157 104 179 51 94 128 220 135 225 8 5 3561 3 3566 -2z"/>
</g>
</svg>
