<?xml version="1.0" standalone="no"?>
<!DOCTYPE svg PUBLIC "-//W3C//DTD SVG 20010904//EN"
 "http://www.w3.org/TR/2001/REC-SVG-20010904/DTD/svg10.dtd">
<svg version="1.0" xmlns="http://www.w3.org/2000/svg"
 width="700.000000pt" height="700.000000pt" viewBox="0 0 700.000000 700.000000"
 preserveAspectRatio="xMidYMid meet">
<metadata>
Created by potrace 1.11, written by Peter Selinger 2001-2013
</metadata>
<g transform="translate(0.000000,700.000000) scale(0.100000,-0.100000)"
fill="#000000" stroke="none">
<path d="M0 3500 l0 -3500 3500 0 3500 0 0 3500 0 3500 -3500 0 -3500 0 0
-3500z m2328 2170 c343 -56 622 -308 713 -646 32 -116 32 -317 1 -432 -86
-318 -316 -548 -634 -634 -115 -31 -316 -31 -432 1 -406 110 -676 482 -653
896 26 459 401 817 862 824 44 0 108 -4 143 -9z m2189 -1750 c310 -41 575
-176 786 -399 176 -188 293 -426 333 -681 20 -126 15 -355 -11 -470 -112 -500
-495 -883 -995 -995 -115 -26 -344 -31 -470 -11 -700 111 -1178 763 -1074
1464 40 270 171 531 363 723 277 277 687 419 1068 369z"/>
</g>
</svg>
