<svg width="142" height="40" viewBox="0 0 142 40" fill="none" xmlns="http://www.w3.org/2000/svg">
<path d="M58.3488 6.20605H59.8332V13.2287H58.5684L55.3945 8.84075V13.2287H53.9102V6.20605H55.2773L58.3488 10.4914V6.20605ZM63.7005 8.90919C63.3786 8.90919 63.1051 8.99931 62.8803 9.17858C62.6559 9.35834 62.5011 9.60943 62.4165 9.9328H65.0335C64.9326 9.60268 64.7678 9.35015 64.5381 9.17376C64.3089 8.99738 64.0297 8.90919 63.7005 8.90919ZM66.4939 10.501C66.4939 10.6475 66.4838 10.7916 66.4646 10.9318H62.3776C62.4391 11.301 62.5867 11.5839 62.8192 11.7815C63.0518 11.9791 63.3459 12.0779 63.7005 12.0779C63.9514 12.0779 64.1767 12.0224 64.3771 11.9111C64.577 11.8003 64.7327 11.647 64.8432 11.4509H66.3766C66.1815 12.0417 65.8427 12.5111 65.3612 12.8591C64.8793 13.2065 64.3257 13.3805 63.7005 13.3805C63.1763 13.3805 62.7001 13.2557 62.2724 13.0056C61.8442 12.7559 61.5083 12.4128 61.2642 11.9747C61.0196 11.5376 60.8976 11.0528 60.8976 10.5203C60.8976 9.98485 61.0192 9.49858 61.2613 9.06099C61.504 8.6234 61.8394 8.28075 62.2676 8.03256C62.6957 7.78485 63.1734 7.66051 63.7005 7.66051C64.2411 7.66051 64.726 7.78822 65.1561 8.04461C65.5857 8.30099 65.9158 8.64461 66.1469 9.07593C66.3781 9.50678 66.4939 9.98148 66.4939 10.501ZM70.2377 11.9261H70.9018V13.2287H69.8667C69.2742 13.2287 68.8062 13.0567 68.4626 12.7121C68.119 12.368 67.9475 11.8952 67.9475 11.2942V8.98774H66.971V8.67401L69.1046 6.3969H69.3828V7.81232H70.8725V8.98774H69.4073V11.0986C69.4073 11.3632 69.4789 11.567 69.6226 11.7106C69.7658 11.8542 69.9705 11.9261 70.2377 11.9261ZM74.4842 11.7844C74.8811 11.7844 75.2102 11.6514 75.4707 11.3848C75.7311 11.1193 75.8609 10.7834 75.8609 10.3786C75.8609 9.97714 75.7321 9.64509 75.4731 9.38196C75.2141 9.11931 74.8844 8.98774 74.4842 8.98774C74.0868 8.98774 73.7581 9.11931 73.4976 9.38196C73.2372 9.64509 73.107 9.97714 73.107 10.3786C73.107 10.7834 73.2362 11.1193 73.4952 11.3848C73.7537 11.6514 74.0839 11.7844 74.4842 11.7844ZM76.3395 7.81232H77.2871V12.6022C77.2871 13.4475 77.0411 14.1145 76.5495 14.6027C76.0579 15.0904 75.3842 15.3347 74.5284 15.3347C73.7951 15.3347 73.1853 15.1583 72.6966 14.8061C72.2088 14.4533 71.9027 13.9665 71.7788 13.3463H73.2295C73.3073 13.5781 73.4678 13.7588 73.71 13.8875C73.9527 14.0167 74.217 14.0812 74.5034 14.0812C74.8844 14.0812 75.205 13.9661 75.4654 13.7357C75.7259 13.5058 75.8561 13.1983 75.8561 12.8128V12.607C75.3972 12.9304 74.8825 13.0918 74.3136 13.0918C73.8181 13.0918 73.365 12.9728 72.9532 12.7342C72.5414 12.4962 72.2175 12.1685 71.9815 11.7526C71.7456 11.3362 71.6279 10.8783 71.6279 10.3786C71.6279 9.88268 71.7456 9.42629 71.9815 9.00991C72.2175 8.59352 72.5414 8.26485 72.9532 8.02292C73.365 7.78148 73.8181 7.66051 74.3136 7.66051C75.0132 7.66051 75.6105 7.89087 76.105 8.35111L76.3395 7.81232ZM81.14 8.90919C80.8176 8.90919 80.5446 8.99931 80.3197 9.17858C80.0949 9.35834 79.9406 9.60943 79.8556 9.9328H82.473C82.3721 9.60268 82.2073 9.35015 81.9776 9.17376C81.7484 8.99738 81.4692 8.90919 81.14 8.90919ZM83.9329 10.501C83.9329 10.6475 83.9233 10.7916 83.904 10.9318H79.8166C79.8786 11.301 80.0261 11.5839 80.2587 11.7815C80.4913 11.9791 80.7854 12.0779 81.14 12.0779C81.3904 12.0779 81.6162 12.0224 81.8161 11.9111C82.0165 11.8003 82.1717 11.647 82.2827 11.4509H83.8156C83.6205 12.0417 83.2822 12.5111 82.8003 12.8591C82.3183 13.2065 81.7652 13.3805 81.14 13.3805C80.6158 13.3805 80.1396 13.2557 79.7114 13.0056C79.2837 12.7559 78.9478 12.4128 78.7037 11.9747C78.4591 11.5376 78.3371 11.0528 78.3371 10.5203C78.3371 9.98485 78.4586 9.49858 78.7008 9.06099C78.9435 8.6234 79.2789 8.28075 79.7071 8.03256C80.1347 7.78485 80.6124 7.66051 81.14 7.66051C81.6806 7.66051 82.1655 7.78822 82.5951 8.04461C83.0251 8.30099 83.3553 8.64461 83.5864 9.07593C83.8175 9.50678 83.9329 9.98148 83.9329 10.501ZM88.0443 7.68509C88.6565 7.68509 89.1433 7.88991 89.5046 8.29955C89.866 8.70919 90.0467 9.25907 90.0467 9.94774V13.2287H88.5868V10.1829C88.5868 9.3728 88.2726 8.96846 87.644 8.96846C87.2702 8.96846 86.9742 9.09473 86.7579 9.34774C86.5412 9.60075 86.4331 9.94581 86.4331 10.3834V13.2287H84.9727V7.81232H85.9742L86.2572 8.48364C86.4658 8.23545 86.7253 8.04027 87.0362 7.8981C87.3471 7.75593 87.683 7.68509 88.0443 7.68509ZM92.4513 10.9203C93.1173 10.9203 93.6574 11.462 93.6574 12.1299C93.6574 12.7979 93.1173 13.34 92.4513 13.34C91.7848 13.34 91.2447 12.7979 91.2447 12.1299C91.2447 11.462 91.7848 10.9203 92.4513 10.9203ZM54.8722 31.8089H61.134V32.7183H53.9102V19.4162H54.8722V31.8089ZM68.452 20.7612L65.3627 28.1911H71.625L68.452 20.7612ZM73.5481 32.7183L71.9945 29.0822H64.9932L63.467 32.7183H62.4497L68.008 19.4162H68.8682L74.5846 32.7183H73.5481ZM87.1188 19.4162L82.078 27.4494V32.7183H81.0977V27.4581L76.1122 19.4162H77.1574L81.597 26.54L86.0736 19.4162H87.1188ZM92.9986 31.2109C93.902 31.727 94.9145 31.9853 96.037 31.9853C97.1591 31.9853 98.1725 31.7289 99.0754 31.2157C99.9788 30.702 100.681 29.9959 101.184 29.0957C101.687 28.1959 101.938 27.1897 101.938 26.0769C101.938 25.2417 101.79 24.4576 101.494 23.7251C101.198 22.9921 100.791 22.3651 100.273 21.8422C99.7554 21.3198 99.1312 20.9068 98.4003 20.6036C97.6699 20.3005 96.8818 20.1492 96.037 20.1492C95.1985 20.1492 94.4123 20.3005 93.6786 20.6036C92.9448 20.9068 92.3191 21.3212 91.8011 21.8465C91.2831 22.3723 90.8761 23.0017 90.5801 23.7342C90.2846 24.4673 90.1361 25.248 90.1361 26.0769C90.1361 27.1839 90.3869 28.1873 90.89 29.0865C91.3922 29.9863 92.0952 30.6947 92.9986 31.2109ZM98.789 32.3983C97.9346 32.7473 97.0173 32.9222 96.037 32.9222C95.0567 32.9222 94.1394 32.7473 93.2855 32.3983C92.4311 32.0489 91.704 31.5714 91.1029 30.9651C90.5018 30.3588 90.0279 29.634 89.6829 28.7901C89.3374 27.9458 89.1649 27.0412 89.1649 26.0769C89.1649 24.7839 89.458 23.6152 90.0438 22.5699C90.6291 21.5251 91.4465 20.7039 92.4945 20.1073C93.543 19.5106 94.7237 19.2123 96.037 19.2123C97.3508 19.2123 98.5315 19.5106 99.5795 20.1073C100.628 20.7039 101.445 21.5251 102.031 22.5699C102.616 23.6152 102.909 24.7839 102.909 26.0769C102.909 27.0412 102.737 27.9473 102.392 28.794C102.046 29.6417 101.573 30.3665 100.972 30.9694C100.37 31.5728 99.6424 32.0489 98.789 32.3983ZM111.207 32.9039C109.746 32.9039 108.54 32.4248 107.591 31.4663C106.641 30.5073 106.167 29.286 106.167 27.8022V19.4167H107.129V27.7371C107.129 28.98 107.509 29.9959 108.271 30.7844C109.032 31.5728 110.011 31.967 111.207 31.967C112.397 31.967 113.373 31.5728 114.135 30.7844C114.896 29.9959 115.277 28.98 115.277 27.7371V19.4167H116.239V27.8022C116.239 29.286 115.764 30.5073 114.814 31.4663C113.865 32.4248 112.662 32.9039 111.207 32.9039ZM128.321 19.4162V20.3251H124.093V32.7183H123.141V20.3251H118.905V19.4162H128.321ZM134.88 32.8759C133.462 32.8759 132.318 32.5005 131.448 31.7487C130.579 30.9979 130.145 29.9969 130.145 28.7482H131.116C131.116 29.7188 131.461 30.4938 132.151 31.0716C132.842 31.6499 133.749 31.9391 134.871 31.9391C135.894 31.9391 136.733 31.6764 137.387 31.1506C138.04 30.6248 138.367 29.9352 138.367 29.0822C138.367 28.8716 138.344 28.6754 138.297 28.4928C138.252 28.3106 138.196 28.1482 138.132 28.0061C138.067 27.8639 137.968 27.7289 137.835 27.6027C137.703 27.4759 137.581 27.3689 137.47 27.2827C137.359 27.1959 137.203 27.1077 137.003 27.0181C136.803 26.9285 136.636 26.8576 136.504 26.8046C136.371 26.7521 136.178 26.6918 135.926 26.6234C135.672 26.5559 135.475 26.5048 135.333 26.4706C135.191 26.4369 134.982 26.3887 134.705 26.327C134.155 26.2032 133.736 26.1029 133.447 26.0253C133.157 25.9482 132.787 25.8157 132.336 25.6268C131.887 25.4379 131.546 25.234 131.314 25.0147C131.084 24.7945 130.877 24.4962 130.695 24.1193C130.513 23.742 130.422 23.3121 130.422 22.8297C130.422 21.7352 130.817 20.8663 131.606 20.2234C132.395 19.58 133.449 19.2586 134.769 19.2586C136.058 19.2586 137.085 19.6003 137.849 20.2836C138.614 20.967 138.996 21.8836 138.996 23.034H138.043C138.043 22.1622 137.741 21.4677 137.137 20.9516C136.532 20.4354 135.737 20.1767 134.751 20.1767C133.739 20.1767 132.924 20.4152 132.304 20.8914C131.685 21.3675 131.375 22.0012 131.375 22.7926C131.375 22.9906 131.398 23.1776 131.444 23.354C131.49 23.5299 131.546 23.6851 131.61 23.8176C131.675 23.9506 131.774 24.0788 131.907 24.2027C132.039 24.3265 132.159 24.4316 132.268 24.5179C132.375 24.6046 132.529 24.6899 132.73 24.7733C132.93 24.8567 133.098 24.9246 133.234 24.9771C133.369 25.0301 133.561 25.0885 133.807 25.1535C134.054 25.2181 134.248 25.2682 134.39 25.302C134.532 25.3357 134.738 25.3839 135.01 25.4456C135.41 25.5381 135.714 25.6114 135.921 25.6634C136.127 25.7164 136.411 25.7998 136.772 25.9145C137.133 26.0287 137.411 26.1395 137.609 26.248C137.806 26.3564 138.033 26.5048 138.289 26.6933C138.544 26.8817 138.737 27.0827 138.866 27.2962C138.996 27.5097 139.109 27.7675 139.204 28.0706C139.299 28.3738 139.347 28.7082 139.347 29.0726C139.347 30.2229 138.93 31.1444 138.094 31.8369C137.259 32.5294 136.187 32.8759 134.88 32.8759Z" fill="white"/>
<ellipse cx="27.8717" cy="19.759" rx="19.2213" ry="19.2771" fill="#A477FC"/>
<mask id="mask0" mask-type="alpha" maskUnits="userSpaceOnUse" x="8" y="0" width="40" height="40">
<path d="M47.093 19.759C47.093 30.4055 38.4873 39.0362 27.8717 39.0362C17.2561 39.0362 8.65039 30.4055 8.65039 19.759C8.65039 9.11259 17.2561 0.481934 27.8717 0.481934C38.4873 0.481934 47.093 9.11259 47.093 19.759Z" fill="#A477FC"/>
</mask>
<g mask="url(#mask0)">
<path d="M25.218 26.8584L21.6465 28.2093V-0.51709H25.218V26.8584Z" fill="white"/>
<path fill-rule="evenodd" clip-rule="evenodd" d="M28.791 -0.51709H32.3625V25.4898H28.791V-0.51709Z" fill="white"/>
<path d="M32.3611 19.5908L21.6465 28.2096H47.6065V19.5908H32.3611Z" fill="black"/>
</g>
</svg>
